<?xml version="1.0" standalone="no"?>
<!DOCTYPE svg PUBLIC "-//W3C//DTD SVG 20010904//EN"
 "http://www.w3.org/TR/2001/REC-SVG-20010904/DTD/svg10.dtd">
<svg version="1.0" xmlns="http://www.w3.org/2000/svg"
 width="640.000000pt" height="640.000000pt" viewBox="0 0 640.000000 640.000000"
 preserveAspectRatio="xMidYMid meet">
<metadata>
Created by potrace 1.11, written by Peter Selinger 2001-2013
</metadata>
<g transform="translate(0.000000,640.000000) scale(0.100000,-0.100000)"
fill="#000000" stroke="none">
<path d="M4251 6249 c-23 -23 -41 -61 -70 -152 -21 -67 -41 -115 -44 -107 -3
8 -20 61 -37 117 -36 121 -66 163 -114 163 -33 0 -62 -17 -163 -94 -48 -36
-54 -38 -121 -38 -84 0 -127 -21 -137 -67 -13 -58 3 -88 91 -175 47 -46 81
-86 77 -88 -5 -1 -19 -20 -32 -40 -12 -21 -27 -38 -33 -38 -6 0 -47 35 -93 78
-91 87 -134 107 -182 87 -40 -17 -82 -104 -88 -183 -2 -33 -9 -81 -15 -106
-26 -115 -24 -150 6 -181 13 -13 34 -16 101 -14 46 1 85 0 88 -2 2 -3 -18 -29
-45 -59 -55 -60 -57 -68 -35 -130 14 -39 14 -42 -3 -35 -9 4 -29 12 -44 17
-17 6 -45 36 -73 78 -71 107 -161 165 -264 172 -39 2 -44 5 -64 47 -62 128
-159 234 -257 280 -124 58 -317 23 -504 -92 -35 -22 -47 -23 -127 -19 -106 5
-224 -11 -300 -42 l-54 -22 -56 29 c-188 97 -401 -34 -402 -248 -1 -161 115
-279 273 -279 112 0 208 62 251 162 18 42 19 42 71 42 29 0 63 3 75 6 20 6 21
4 12 -33 -5 -21 -9 -61 -9 -89 0 -46 -3 -53 -23 -58 -13 -3 -44 -21 -70 -41
-25 -19 -50 -35 -56 -35 -20 0 -87 -35 -128 -67 -119 -94 -129 -296 -22 -417
l37 -41 72 2 c70 2 72 1 66 -20 -4 -12 -9 -29 -11 -37 -27 -98 -49 -167 -55
-174 -5 -5 -19 -3 -32 6 -75 49 -244 75 -313 48 -93 -36 -139 -108 -140 -220
0 -158 90 -268 275 -338 21 -8 28 -20 39 -73 10 -53 10 -64 -1 -68 -7 -2 -34
-25 -59 -51 -46 -46 -69 -102 -69 -165 0 -26 0 -26 -72 -22 -52 2 -73 7 -76
18 -10 35 -59 92 -93 109 -20 11 -61 21 -90 24 -154 12 -238 39 -334 105 -154
107 -310 144 -484 115 -246 -40 -361 -180 -244 -298 36 -36 127 -86 157 -86
26 0 26 -16 1 -40 -73 -69 -84 -206 -26 -324 93 -189 303 -272 443 -174 14 10
28 18 31 18 3 0 4 -30 4 -67 -1 -127 45 -175 181 -194 37 -5 94 -14 127 -20
84 -16 162 -14 192 6 13 9 26 15 27 13 15 -24 63 -84 84 -104 37 -36 120 -74
161 -74 l33 0 -6 -72 c-4 -40 -9 -82 -11 -93 -2 -11 -7 -39 -9 -63 -3 -23 -17
-63 -32 -87 -30 -51 -54 -134 -54 -185 0 -131 109 -285 258 -363 92 -48 161
-66 253 -63 l75 1 36 -55 c29 -45 34 -58 23 -70 -24 -29 -47 -106 -48 -156 0
-69 36 -122 121 -175 l66 -42 -70 -17 c-261 -67 -442 -161 -510 -265 -24 -37
-52 -161 -48 -215 9 -135 153 -248 357 -280 149 -24 310 3 381 65 30 26 37 25
76 -15 19 -19 84 -62 130 -85 263 -133 671 -138 986 -12 76 31 84 32 119 20
21 -7 75 -16 119 -19 199 -16 358 80 391 236 11 48 9 150 -3 180 -16 40 -48
68 -169 147 -128 83 -149 111 -157 215 l-5 55 72 32 c118 52 115 48 119 181 3
64 8 114 14 114 5 -1 49 -5 98 -9 50 -4 97 -8 105 -10 9 -1 43 -6 76 -10 32
-4 66 -8 75 -10 101 -18 211 -27 380 -29 467 -7 821 109 1041 341 108 114 183
254 222 417 22 90 26 98 68 133 199 169 327 413 384 733 13 71 13 346 0 432
-64 426 -266 796 -590 1077 -102 89 -125 114 -131 149 -6 30 -3 39 17 55 20
16 33 18 110 12 69 -5 93 -4 117 9 80 41 81 124 1 196 -16 14 -15 17 7 43 46
53 22 129 -56 181 -37 24 -39 28 -25 42 14 15 19 44 16 89 -1 11 -12 41 -25
68 -23 47 -23 48 -5 85 10 20 20 50 23 67 7 39 -25 104 -63 129 -29 20 -29 21
-28 106 2 100 -17 150 -66 181 -45 27 -96 24 -159 -9 l-54 -29 -29 30 c-51 52
-143 77 -206 55 -47 -16 -89 -67 -106 -129 -15 -54 -20 -60 -62 -81 -53 -27
-75 -63 -74 -126 1 -31 -4 -45 -17 -52 -30 -16 -57 -71 -71 -140 -7 -36 -17
-68 -21 -71 -5 -3 -22 -3 -39 -1 l-31 5 7 76 c4 42 8 78 10 81 2 3 6 25 10 50
4 24 17 78 30 119 16 49 21 80 15 90 -5 9 -11 15 -14 14 -28 -13 -17 9 40 80
75 91 158 215 197 294 22 43 24 53 13 62 -11 9 -26 3 -68 -31 -79 -65 -164
-128 -171 -128 -9 0 0 87 18 172 14 70 11 102 -9 95 -6 -2 -35 -39 -64 -83
-30 -43 -74 -104 -99 -134 -68 -84 -224 -249 -253 -267 -14 -9 -4 7 25 38 144
155 180 213 166 265 -10 37 -48 59 -144 83 -47 12 -84 27 -95 39 -29 35 -93
72 -123 72 -17 0 -39 -11 -58 -31z m-306 -359 l6 -74 -30 38 c-17 21 -41 47
-53 58 -22 19 -23 20 -2 16 25 -4 54 18 54 40 0 10 3 12 9 7 5 -6 12 -44 16
-85z m434 21 c-42 -65 -108 -138 -130 -144 -32 -9 -31 10 2 23 46 19 59 37 59
81 0 22 6 55 14 74 14 33 15 33 49 23 l35 -11 -29 -46z m-1701 -4514 c11 -40
5 -56 -20 -57 -11 0 -36 41 -43 72 -5 20 -3 27 12 30 30 7 40 -2 51 -45z m212
-474 c0 -50 -1 -53 -19 -44 -25 14 -71 69 -71 86 0 9 14 13 45 12 l45 0 0 -54z"/>
</g>
</svg>
